<?xml version="1.0" encoding="UTF-8"?>
<svg id="Layer_1" data-name="Layer 1" xmlns="http://www.w3.org/2000/svg" viewBox="0 0 841.89 554.47">
  <defs>
    <style>
      .cls-1 {
        fill: #fff;
      }

      .cls-2 {
        fill: #ed1c24;
      }

      .cls-3, .cls-4 {
        fill: #231f20;
      }

      .cls-4 {
        stroke: #231f20;
        stroke-miterlimit: 10;
      }
    </style>
  </defs>
  <circle class="cls-4" cx="125.17" cy="75.9" r="29.36"/>
  <circle class="cls-2" cx="205.05" cy="75.9" r="29.36"/>
  <g>
    <path class="cls-1" d="m125.17,65.06v-6.76c11.88,0,20.84,5.57,20.84,12.96s-8.96,12.96-20.84,12.96v-6.76c8.59,0,14.07-3.67,14.07-6.2s-5.48-6.2-14.07-6.2Z"/>
    <path class="cls-1" d="m125.17,86.74v6.76c-11.88,0-20.84-5.57-20.84-12.96s8.96-12.96,20.84-12.96v6.76c-8.59,0-14.07,3.67-14.07,6.2s5.48,6.2,14.07,6.2Z"/>
  </g>
  <g>
    <path class="cls-1" d="m205.05,65.06v-6.76c11.88,0,20.84,5.57,20.84,12.96s-8.96,12.96-20.84,12.96v-6.76c8.59,0,14.07-3.67,14.07-6.2s-5.48-6.2-14.07-6.2Z"/>
    <path class="cls-1" d="m205.05,86.74v6.76c-11.88,0-20.84-5.57-20.84-12.96s8.96-12.96,20.84-12.96v6.76c-8.59,0-14.07,3.67-14.07,6.2s5.48,6.2,14.07,6.2Z"/>
  </g>
  <g>
    <path class="cls-4" d="m245.22,314.79c0-15.55,11.59-23.46,22.63-23.46,6.53,0,11.96,2.76,15.18,7.82v-26.49h10.95v42.23c0,14.72-9.94,24.29-24.2,24.29s-24.56-9.94-24.56-24.38Zm37.81.46c0-8-5.33-13.71-13.34-13.71s-13.43,5.7-13.43,13.71,5.43,13.71,13.43,13.71,13.34-5.7,13.34-13.71Z"/>
    <path class="cls-4" d="m302.54,315.71c0-14.44,10.12-24.38,24.56-24.38s24.2,9.66,24.2,24.29v22.35h-10.03v-8.92c-2.76,6.72-8.92,10.12-16.1,10.12-11.04,0-22.63-7.91-22.63-23.46Zm37.81-.46c0-8-5.33-13.71-13.34-13.71s-13.43,5.7-13.43,13.71,5.43,13.71,13.43,13.71,13.34-5.7,13.34-13.71Z"/>
    <path class="cls-4" d="m361.69,320.49v-44.07h10.95v16.1h23.46v9.94h-23.46v18.03c0,6.07,3.13,8.46,7.64,8.46s7.64-2.3,7.64-8.46v-1.2h10.95v1.2c0,12.6-7.54,18.68-18.58,18.68s-18.58-6.07-18.58-18.68Z"/>
    <path class="cls-4" d="m405.39,315.71c0-14.44,10.12-24.38,24.56-24.38s24.2,9.66,24.2,24.29v22.35h-10.03v-8.92c-2.76,6.72-8.92,10.12-16.1,10.12-11.04,0-22.63-7.91-22.63-23.46Zm37.81-.46c0-8-5.33-13.71-13.34-13.71s-13.43,5.7-13.43,13.71,5.43,13.71,13.43,13.71,13.34-5.7,13.34-13.71Z"/>
    <path class="cls-2" d="m471.93,324.82h8.83c.18,3.77,3.68,6.44,10.03,6.44s10.03-2.85,10.03-6.44c0-4.32-4.78-4.88-10.49-5.61-7.91-1.01-17.48-2.48-17.48-12.88,0-8.92,6.99-15,17.85-15s17.57,6.16,17.75,13.98h-8.65c-.28-3.5-3.5-6.07-9.02-6.07-5.8,0-9.11,2.76-9.11,6.35,0,4.32,4.78,4.78,10.4,5.52,7.91,1.01,17.57,2.48,17.57,12.88,0,9.2-7.45,15.18-18.86,15.18s-18.58-6.07-18.86-14.35Z"/>
    <path class="cls-2" d="m520.51,272.65h8.74v40.02l20.88-20.15h11.5l-23.73,22.17,24.56,23.27h-11.68l-21.53-21.16v21.16h-8.74v-65.32Z"/>
    <path class="cls-2" d="m565.49,315.62c0-14.26,10.12-24.29,24.56-24.29s24.2,9.75,24.2,24.29v22.35h-8v-9.94c-3.04,7.36-9.75,11.13-17.66,11.13-11.87,0-23.09-8.56-23.09-23.55Zm40.11-.37c0-9.2-6.25-15.82-15.64-15.82s-15.64,6.62-15.64,15.82,6.26,15.82,15.64,15.82,15.64-6.62,15.64-15.82Z"/>
    <path class="cls-2" d="m624.65,320.77v-44.34h8.74v16.1h25.02v8h-25.02v20.24c0,7.18,3.77,10.3,9.48,10.3s9.57-3.04,9.57-10.3v-1.01h8.65v1.01c0,12.33-7.36,18.4-18.21,18.4s-18.21-6.07-18.21-18.4Z"/>
    <path class="cls-2" d="m667.89,315.25c0-13.8,10.12-23.92,24.47-23.92s24.29,10.12,24.29,23.92v3.22h-39.56c1.29,8.1,7.36,12.6,15.27,12.6,5.89,0,10.03-1.84,12.7-5.8h9.66c-3.5,8.46-11.78,13.89-22.35,13.89-14.35,0-24.47-10.12-24.47-23.92Zm39.56-4.6c-1.75-7.27-7.73-11.22-15.09-11.22s-13.25,4.05-15,11.22h30.08Z"/>
  </g>
  <g>
    <path class="cls-3" d="m631.83,55.18c0-3.29,1.9-5.37,5.39-5.37s5.45,2.08,5.45,5.37v7.33h-1.94v-3.94h-7.01v3.94h-1.89v-7.33Zm8.89,1.6v-1.6c0-2.25-1.18-3.58-3.5-3.58s-3.5,1.33-3.5,3.58v1.6h7.01Z"/>
    <path class="cls-3" d="m644.74,48.99h1.81v13.52h-1.81v-13.52Z"/>
    <path class="cls-3" d="m648.91,48.99h1.81v13.52h-1.81v-13.52Z"/>
    <path class="cls-3" d="m657.95,50.06h5.35c3.07,0,4.4,1.69,4.4,4,0,1.87-.88,3.33-2.84,3.83l3.29,4.63h-2.32l-2.97-4.46h-2.97v4.46h-1.94v-12.45Zm5.37,6.21c1.81,0,2.42-.95,2.42-2.21s-.63-2.21-2.42-2.21h-3.43v4.42h3.43Z"/>
    <path class="cls-3" d="m668.9,57.81c0-2.86,2.09-4.95,5.06-4.95s5.07,2.09,5.07,4.95-2.1,4.95-5.07,4.95-5.06-2.1-5.06-4.95Zm8.3,0c0-1.9-1.29-3.28-3.24-3.28s-3.24,1.37-3.24,3.28,1.29,3.28,3.24,3.28,3.24-1.37,3.24-3.28Z"/>
    <path class="cls-3" d="m680.32,58.02v-4.91h1.81v4.91c0,2.04,1.12,3.07,2.84,3.07s2.84-1.03,2.84-3.07v-4.91h1.81v4.91c0,3.12-1.87,4.74-4.65,4.74s-4.65-1.6-4.65-4.74Z"/>
    <path class="cls-3" d="m691.29,57.62c0-3.14,1.87-4.76,4.65-4.76s4.65,1.6,4.65,4.76v4.89h-1.81v-4.89c0-2.04-1.12-3.08-2.84-3.08s-2.84,1.05-2.84,3.08v4.89h-1.81v-4.89Z"/>
    <path class="cls-3" d="m701.87,57.75c0-3.12,2.32-4.89,4.78-4.89,1.52,0,2.82.69,3.5,1.9v-5.77h1.81v8.74c0,3.07-2.09,5.03-5.01,5.03s-5.08-2.06-5.08-5.01Zm8.28.06c0-1.9-1.29-3.28-3.22-3.28s-3.24,1.37-3.24,3.28,1.29,3.28,3.24,3.28,3.22-1.37,3.22-3.28Z"/>
    <path class="cls-3" d="m718.23,56.29c0-3.73,2.74-6.47,6.63-6.47,3.03,0,5.35,1.66,6.25,4.17h-2.15c-.72-1.47-2.19-2.38-4.09-2.38-2.76,0-4.67,1.98-4.67,4.69s1.9,4.68,4.67,4.68c2.27,0,3.94-1.14,4.53-3.22h-5.29v-1.79h7.37v.95c-.29,3.41-2.95,5.85-6.61,5.85-3.88,0-6.63-2.74-6.63-6.47Z"/>
    <path class="cls-3" d="m732.35,57.81c0-2.86,2.09-4.95,5.06-4.95s5.07,2.09,5.07,4.95-2.1,4.95-5.07,4.95-5.06-2.1-5.06-4.95Zm8.3,0c0-1.9-1.29-3.28-3.24-3.28s-3.24,1.37-3.24,3.28,1.29,3.28,3.24,3.28,3.24-1.37,3.24-3.28Z"/>
    <path class="cls-3" d="m743.77,58.95v-9.18h1.81v3.33h5.18v1.66h-5.18v4.19c0,1.48.78,2.13,1.96,2.13s1.98-.63,1.98-2.13v-.21h1.79v.21c0,2.55-1.52,3.81-3.77,3.81s-3.77-1.26-3.77-3.81Z"/>
    <path class="cls-3" d="m752.93,48.99h1.81v5.66c.65-1.16,1.75-1.79,3.14-1.79,2.34,0,4.34,1.47,4.34,4.76v4.89h-1.81v-4.89c0-2.04-1.12-3.08-2.84-3.08s-2.84,1.07-2.84,3.08v4.89h-1.81v-13.52Z"/>
    <path class="cls-3" d="m763.88,50.35c0-.72.53-1.26,1.26-1.26s1.26.53,1.26,1.26-.53,1.28-1.26,1.28-1.26-.55-1.26-1.28Zm.36,2.76h1.81v9.41h-1.81v-9.41Z"/>
    <path class="cls-3" d="m767.67,57.81c0-2.86,2.1-4.95,5.07-4.95,2.49,0,4.36,1.48,4.86,3.66h-1.83c-.46-1.2-1.56-1.98-3.03-1.98-1.94,0-3.24,1.37-3.24,3.28s1.29,3.28,3.24,3.28c1.47,0,2.57-.78,3.03-1.98h1.83c-.5,2.17-2.36,3.66-4.86,3.66-2.97,0-5.07-2.1-5.07-4.95Z"/>
  </g>
  <g>
    <path class="cls-2" d="m195.02,287.72v-12.49c21.94,0,38.48,10.29,38.48,23.93s-16.55,23.93-38.48,23.93v-12.49c15.86,0,25.99-6.77,25.99-11.44s-10.13-11.44-25.99-11.44Z"/>
    <path class="cls-4" d="m195.02,327.75v12.49c-21.94,0-38.48-10.29-38.48-23.93s16.55-23.93,38.48-23.93v12.49c-15.86,0-25.99,6.77-25.99,11.44s10.13,11.44,25.99,11.44Z"/>
  </g>
</svg>