<?xml version="1.0" encoding="UTF-8"?>
<svg id="Layer_1" data-name="Layer 1" xmlns="http://www.w3.org/2000/svg" viewBox="0 0 841.89 554.47">
  <defs>
    <style>
      .cls-1 {
        fill: #ed1c24;
      }

      .cls-2 {
        fill: #231f20;
        stroke: #231f20;
        stroke-miterlimit: 10;
      }
    </style>
  </defs>
  <g>
    <path class="cls-2" d="m162.28,282.14c0-20.92,15.6-31.56,30.45-31.56,8.79,0,16.09,3.71,20.42,10.52v-35.65h14.73v56.81c0,19.8-13.37,32.68-32.55,32.68s-33.05-13.37-33.05-32.8Zm50.87.62c0-10.77-7.18-18.44-17.95-18.44s-18.07,7.67-18.07,18.44,7.3,18.44,18.07,18.44,17.95-7.67,17.95-18.44Z"/>
    <path class="cls-2" d="m239.39,283.37c0-19.43,13.62-32.8,33.05-32.8s32.55,13,32.55,32.68v30.08h-13.49v-12.01c-3.71,9.04-12.01,13.62-21.66,13.62-14.85,0-30.45-10.65-30.45-31.56Zm50.87-.62c0-10.77-7.18-18.44-17.95-18.44s-18.07,7.67-18.07,18.44,7.3,18.44,18.07,18.44,17.95-7.67,17.95-18.44Z"/>
    <path class="cls-2" d="m318.98,289.81v-59.29h14.73v21.66h31.56v13.37h-31.56v24.26c0,8.17,4.21,11.39,10.27,11.39s10.27-3.09,10.27-11.39v-1.61h14.73v1.61c0,16.96-10.15,25.13-25,25.13s-25-8.17-25-25.13Z"/>
    <path class="cls-2" d="m377.77,283.37c0-19.43,13.62-32.8,33.05-32.8s32.55,13,32.55,32.68v30.08h-13.49v-12.01c-3.71,9.04-12.01,13.62-21.66,13.62-14.85,0-30.45-10.65-30.45-31.56Zm50.87-.62c0-10.77-7.18-18.44-17.95-18.44s-18.07,7.67-18.07,18.44,7.3,18.44,18.07,18.44,17.95-7.67,17.95-18.44Z"/>
    <path class="cls-1" d="m467.29,295.63h11.88c.25,5.08,4.95,8.66,13.49,8.66s13.49-3.84,13.49-8.66c0-5.82-6.44-6.56-14.11-7.55-10.64-1.36-23.52-3.34-23.52-17.33,0-12.01,9.41-20.18,24.01-20.18s23.64,8.29,23.89,18.81h-11.63c-.37-4.7-4.7-8.17-12.13-8.17-7.8,0-12.25,3.71-12.25,8.54,0,5.82,6.44,6.44,13.99,7.43,10.65,1.36,23.64,3.34,23.64,17.33,0,12.38-10.03,20.42-25.38,20.42s-25-8.17-25.38-19.31Z"/>
    <path class="cls-1" d="m532.64,225.45h11.76v53.84l28.1-27.11h15.47l-31.93,29.83,33.05,31.32h-15.72l-28.96-28.47v28.47h-11.76v-87.88Z"/>
    <path class="cls-1" d="m593.16,283.25c0-19.19,13.62-32.68,33.05-32.68s32.55,13.12,32.55,32.68v30.08h-10.77v-13.37c-4.08,9.9-13.12,14.98-23.77,14.98-15.97,0-31.07-11.51-31.07-31.69Zm53.97-.5c0-12.38-8.42-21.29-21.04-21.29s-21.04,8.91-21.04,21.29,8.42,21.29,21.04,21.29,21.04-8.91,21.04-21.29Z"/>
    <path class="cls-1" d="m672.75,290.18v-59.66h11.76v21.66h33.67v10.77h-33.67v27.23c0,9.65,5.08,13.86,12.75,13.86s12.87-4.08,12.87-13.86v-1.36h11.64v1.36c0,16.59-9.9,24.76-24.51,24.76s-24.51-8.17-24.51-24.76Z"/>
    <path class="cls-1" d="m730.92,282.76c0-18.57,13.62-32.18,32.92-32.18s32.68,13.62,32.68,32.18v4.33h-53.22c1.73,10.89,9.9,16.96,20.55,16.96,7.92,0,13.49-2.48,17.08-7.8h13c-4.7,11.39-15.84,18.69-30.08,18.69-19.31,0-32.92-13.62-32.92-32.18Zm53.22-6.19c-2.35-9.78-10.4-15.1-20.3-15.1s-17.82,5.45-20.18,15.1h40.48Z"/>
  </g>
  <g>
    <path class="cls-1" d="m94.75,245.73v-16.8c29.51,0,51.77,13.84,51.77,32.2s-22.26,32.2-51.77,32.2v-16.8c21.34,0,34.97-9.11,34.97-15.4s-13.62-15.4-34.97-15.4Z"/>
    <path class="cls-2" d="m94.75,299.58v16.8c-29.51,0-51.77-13.84-51.77-32.2s22.26-32.2,51.77-32.2v16.8c-21.34,0-34.97,9.11-34.97,15.4s13.62,15.4,34.97,15.4Z"/>
  </g>
</svg>