<?xml version="1.0" encoding="UTF-8"?>
<svg id="Layer_1" data-name="Layer 1" xmlns="http://www.w3.org/2000/svg" viewBox="0 0 500 500">
  <defs>
    <style>
      .cls-1 {
        fill: #ed1c24;
      }

      .cls-2 {
        fill: #231f20;
        stroke: #231f20;
        stroke-miterlimit: 10;
      }
    </style>
  </defs>
  <g>
    <path class="cls-2" d="m116.01,242.62c0-10.71,7.98-16.15,15.58-16.15,4.5,0,8.24,1.9,10.45,5.38v-18.24h7.54v29.08c0,10.14-6.84,16.72-16.66,16.72s-16.91-6.84-16.91-16.79Zm26.04.32c0-5.51-3.67-9.44-9.19-9.44s-9.25,3.93-9.25,9.44,3.74,9.44,9.25,9.44,9.19-3.93,9.19-9.44Z"/>
    <path class="cls-2" d="m155.47,243.25c0-9.95,6.97-16.79,16.91-16.79s16.66,6.65,16.66,16.72v15.39h-6.9v-6.15c-1.9,4.62-6.15,6.97-11.09,6.97-7.6,0-15.58-5.45-15.58-16.15Zm26.04-.32c0-5.51-3.67-9.44-9.19-9.44s-9.25,3.93-9.25,9.44,3.74,9.44,9.25,9.44,9.19-3.93,9.19-9.44Z"/>
    <path class="cls-2" d="m196.2,246.55v-30.35h7.54v11.09h16.15v6.84h-16.15v12.42c0,4.18,2.15,5.83,5.26,5.83s5.26-1.58,5.26-5.83v-.82h7.54v.82c0,8.68-5.19,12.86-12.8,12.86s-12.8-4.18-12.8-12.86Z"/>
    <path class="cls-2" d="m226.29,243.25c0-9.95,6.97-16.79,16.91-16.79s16.66,6.65,16.66,16.72v15.39h-6.9v-6.15c-1.9,4.62-6.15,6.97-11.09,6.97-7.6,0-15.58-5.45-15.58-16.15Zm26.04-.32c0-5.51-3.67-9.44-9.19-9.44s-9.25,3.93-9.25,9.44,3.74,9.44,9.25,9.44,9.19-3.93,9.19-9.44Z"/>
    <path class="cls-1" d="m272.11,249.53h6.08c.13,2.6,2.53,4.43,6.91,4.43s6.91-1.96,6.91-4.43c0-2.98-3.29-3.36-7.22-3.86-5.45-.7-12.04-1.71-12.04-8.87,0-6.15,4.81-10.33,12.29-10.33s12.1,4.24,12.23,9.63h-5.95c-.19-2.41-2.41-4.18-6.21-4.18-3.99,0-6.27,1.9-6.27,4.37,0,2.98,3.29,3.29,7.16,3.8,5.45.7,12.1,1.71,12.1,8.87,0,6.34-5.13,10.45-12.99,10.45s-12.8-4.18-12.99-9.88Z"/>
    <path class="cls-1" d="m305.55,213.61h6.02v27.56l14.38-13.87h7.92l-16.34,15.27,16.91,16.03h-8.05l-14.82-14.57v14.57h-6.02v-44.98Z"/>
    <path class="cls-1" d="m336.53,243.19c0-9.82,6.97-16.72,16.91-16.72s16.66,6.71,16.66,16.72v15.39h-5.51v-6.84c-2.09,5.07-6.71,7.67-12.16,7.67-8.17,0-15.9-5.89-15.9-16.22Zm27.62-.25c0-6.34-4.31-10.9-10.77-10.9s-10.77,4.56-10.77,10.9,4.31,10.9,10.77,10.9,10.77-4.56,10.77-10.9Z"/>
    <path class="cls-1" d="m377.26,246.74v-30.54h6.02v11.09h17.23v5.51h-17.23v13.94c0,4.94,2.6,7.1,6.52,7.1s6.59-2.09,6.59-7.1v-.7h5.96v.7c0,8.49-5.07,12.67-12.54,12.67s-12.54-4.18-12.54-12.67Z"/>
    <path class="cls-1" d="m407.04,242.94c0-9.5,6.97-16.47,16.85-16.47s16.72,6.97,16.72,16.47v2.22h-27.24c.89,5.57,5.07,8.68,10.52,8.68,4.05,0,6.91-1.27,8.74-3.99h6.65c-2.41,5.83-8.11,9.57-15.39,9.57-9.88,0-16.85-6.97-16.85-16.47Zm27.24-3.17c-1.2-5-5.32-7.73-10.39-7.73s-9.12,2.79-10.33,7.73h20.72Z"/>
  </g>
  <g>
    <path class="cls-1" d="m81.44,223.99v-8.6c15.1,0,26.5,7.09,26.5,16.48s-11.39,16.48-26.5,16.48v-8.6c10.92,0,17.9-4.66,17.9-7.88s-6.97-7.88-17.9-7.88Z"/>
    <path class="cls-2" d="m81.44,251.55v8.6c-15.1,0-26.5-7.09-26.5-16.48s11.39-16.48,26.5-16.48v8.6c-10.92,0-17.9,4.66-17.9,7.88s6.97,7.88,17.9,7.88Z"/>
  </g>
</svg>